<svg preserveAspectRatio="none" width="100%" height="100%" overflow="visible" style="display: block;" viewBox="0 0 32 32" fill="none" xmlns="http://www.w3.org/2000/svg">
<g id="Group">
<path id="Vector" d="M32 12.19H30.47V19.81H32V12.19Z" fill="var(--fill-0, #7A848F)"/>
<path id="Vector_2" d="M30.47 19.81H28.95V22.86H30.47V19.81Z" fill="var(--fill-0, #7A848F)"/>
<path id="Vector_3" d="M30.47 9.14H28.95V12.19H30.47V9.14Z" fill="var(--fill-0, #7A848F)"/>
<path id="Vector_4" d="M28.95 22.86H27.43V25.9H28.95V22.86Z" fill="var(--fill-0, #7A848F)"/>
<path id="Vector_5" d="M28.95 6.09H27.43V9.14H28.95V6.09Z" fill="var(--fill-0, #7A848F)"/>
<path id="Vector_6" d="M27.43 25.9H25.9V27.43H27.43V25.9Z" fill="var(--fill-0, #7A848F)"/>
<path id="Vector_7" d="M27.43 4.57H25.9V6.09H27.43V4.57Z" fill="var(--fill-0, #7A848F)"/>
<path id="Vector_8" d="M25.9 27.43H22.85V28.95H25.9V27.43Z" fill="var(--fill-0, #7A848F)"/>
<path id="Vector_9" d="M24.38 10.67H22.85V9.14H18.28V10.67H16.76V12.19H15.23V10.67H13.71V9.14H9.14V10.67H7.62V12.19H6.09V16.76H7.62V18.29H9.14V19.81H10.66V21.33H12.19V22.86H13.71V24.38H15.23V25.9H16.76V24.38H18.28V22.86H19.81V21.33H21.33V19.81H22.85V18.29H24.38V16.76H25.9V12.19H24.38V10.67ZM22.85 16.76H21.33V13.71H18.28V12.19H21.33V13.71H22.85V16.76Z" fill="var(--fill-0, #7A848F)"/>
<path id="Vector_10" d="M25.9 3.05H22.85V4.57H25.9V3.05Z" fill="var(--fill-0, #7A848F)"/>
<path id="Vector_11" d="M22.85 28.95H19.81V30.48H22.85V28.95Z" fill="var(--fill-0, #7A848F)"/>
<path id="Vector_12" d="M22.85 1.52H19.81V3.05H22.85V1.52Z" fill="var(--fill-0, #7A848F)"/>
<path id="Vector_13" d="M19.81 30.48H12.19V32H19.81V30.48Z" fill="var(--fill-0, #7A848F)"/>
<path id="Vector_14" d="M19.81 0H12.19V1.52H19.81V0Z" fill="var(--fill-0, #7A848F)"/>
<path id="Vector_15" d="M12.19 28.95H9.14V30.48H12.19V28.95Z" fill="var(--fill-0, #7A848F)"/>
<path id="Vector_16" d="M12.19 1.52H9.14V3.05H12.19V1.52Z" fill="var(--fill-0, #7A848F)"/>
<path id="Vector_17" d="M9.14 27.43H6.09V28.95H9.14V27.43Z" fill="var(--fill-0, #7A848F)"/>
<path id="Vector_18" d="M9.14 3.05H6.09V4.57H9.14V3.05Z" fill="var(--fill-0, #7A848F)"/>
<path id="Vector_19" d="M6.09 25.9H4.57V27.43H6.09V25.9Z" fill="var(--fill-0, #7A848F)"/>
<path id="Vector_20" d="M6.09 4.57H4.57V6.09H6.09V4.57Z" fill="var(--fill-0, #7A848F)"/>
<path id="Vector_21" d="M4.57 22.86H3.04V25.9H4.57V22.86Z" fill="var(--fill-0, #7A848F)"/>
<path id="Vector_22" d="M4.57 6.09H3.04V9.14H4.57V6.09Z" fill="var(--fill-0, #7A848F)"/>
<path id="Vector_23" d="M3.04 19.81H1.52V22.86H3.04V19.81Z" fill="var(--fill-0, #7A848F)"/>
<path id="Vector_24" d="M3.04 9.14H1.52V12.19H3.04V9.14Z" fill="var(--fill-0, #7A848F)"/>
<path id="Vector_25" d="M1.52 12.19H0V19.81H1.52V12.19Z" fill="var(--fill-0, #7A848F)"/>
</g>
</svg>
