<svg preserveAspectRatio="none" width="100%" height="100%" overflow="visible" style="display: block;" viewBox="0 0 30.48 30.48" fill="none" xmlns="http://www.w3.org/2000/svg">
<g id="Group">
<path id="Vector" d="M25.9 12.19V13.71H27.43V22.86H25.9V24.38H28.95V13.71H30.48V9.14H28.95V12.19H25.9Z" fill="white"/>
<path id="Vector_2" d="M28.95 1.52H27.43V6.1H28.95V1.52Z" fill="white"/>
<path id="Vector_3" d="M1.52 7.62V9.14H4.57V7.62H9.14V9.14H4.57V10.67H6.1V13.71H4.57V15.24H6.1V24.38H4.57V25.91H7.62V27.43H10.67V18.29H13.71V16.76H10.67V13.71H13.71V12.19H10.67V10.67H19.81V12.19H16.76V13.71H19.81V16.76H16.76V18.29H19.81V25.91H18.29V27.43H16.76V28.95H19.81V27.43H22.86V25.91H25.9V24.38H24.38V15.24H25.9V13.71H24.38V10.67H25.9V9.14H21.33V7.62H25.9V9.14H28.95V7.62H27.43V6.1H25.9V3.05H22.86V4.57H19.81V6.1H18.29V3.05H16.76V6.1H13.71V3.05H12.19V7.62H10.67V4.57H7.62V3.05H4.57V6.1H3.05V7.62H1.52ZM13.71 7.62H16.76V9.14H13.71V7.62Z" fill="white"/>
<path id="Vector_4" d="M27.43 0H21.33V1.52H27.43V0Z" fill="white"/>
<path id="Vector_5" d="M21.33 1.52H18.29V3.05H21.33V1.52Z" fill="white"/>
<path id="Vector_6" d="M16.76 1.52H13.71V3.05H16.76V1.52Z" fill="white"/>
<path id="Vector_7" d="M16.76 28.95H13.71V30.48H16.76V28.95Z" fill="white"/>
<path id="Vector_8" d="M16.76 18.29H13.71V19.81H16.76V18.29Z" fill="white"/>
<path id="Vector_9" d="M16.76 13.71H13.71V15.24H16.76V13.71Z" fill="white"/>
<path id="Vector_10" d="M13.71 27.43H10.67V28.95H13.71V27.43Z" fill="white"/>
<path id="Vector_11" d="M12.19 1.52H9.14V3.05H12.19V1.52Z" fill="white"/>
<path id="Vector_12" d="M9.14 0H3.05V1.52H9.14V0Z" fill="white"/>
<path id="Vector_13" d="M3.05 22.86V13.71H4.57V12.19H1.52V9.14H0V13.71H1.52V24.38H4.57V22.86H3.05Z" fill="white"/>
<path id="Vector_14" d="M3.05 1.52H1.52V6.1H3.05V1.52Z" fill="white"/>
</g>
</svg>
