<svg preserveAspectRatio="none" width="100%" height="100%" overflow="visible" style="display: block;" viewBox="0 0 32 28.96" fill="none" xmlns="http://www.w3.org/2000/svg">
<g id="Group">
<path id="Vector" d="M32 21.34H25.91V22.86H32V21.34Z" fill="white"/>
<path id="Vector_2" d="M28.95 12.19H27.43V15.24H28.95V12.19Z" fill="white"/>
<path id="Vector_3" d="M27.43 6.1V7.62H30.48V4.57H28.95V6.1H27.43Z" fill="white"/>
<path id="Vector_4" d="M28.95 3.05H27.43V4.57H28.95V3.05Z" fill="white"/>
<path id="Vector_5" d="M27.43 15.24H25.91V16.76H27.43V15.24Z" fill="white"/>
<path id="Vector_6" d="M27.43 10.67H25.91V12.19H27.43V10.67Z" fill="white"/>
<path id="Vector_7" d="M27.43 4.57H18.29V6.1H27.43V4.57Z" fill="white"/>
<path id="Vector_8" d="M27.43 1.53H25.91V3.05H27.43V1.53Z" fill="white"/>
<path id="Vector_9" d="M25.91 22.86H24.38V24.38H25.91V22.86Z" fill="white"/>
<path id="Vector_10" d="M25.91 13.72H24.38V15.24H25.91V13.72Z" fill="white"/>
<path id="Vector_11" d="M25.91 9.15H24.38V10.67H25.91V9.15Z" fill="white"/>
<path id="Vector_12" d="M24.38 12.19H21.34V13.72H24.38V12.19Z" fill="white"/>
<path id="Vector_13" d="M22.86 18.29H21.34V15.24H19.81V13.72H18.29V12.19H16.76V10.67H12.19V13.72H13.72V16.76H15.24V19.81H16.76V27.43H15.24V28.96H25.91V27.43H24.38V24.38H22.86V18.29ZM19.81 27.43H18.29V24.38H19.81V27.43ZM19.81 21.34H18.29V18.29H16.76V15.24H15.24V13.72H16.76V15.24H18.29V18.29H19.81V21.34Z" fill="white"/>
<path id="Vector_14" d="M21.34 10.67H18.29V12.19H21.34V10.67Z" fill="white"/>
<path id="Vector_15" d="M25.91 0H16.76V1.53H25.91V0Z" fill="white"/>
<path id="Vector_16" d="M16.76 9.15H24.38V7.62H18.29V6.1H16.76V9.15Z" fill="white"/>
<path id="Vector_17" d="M16.76 1.53H15.24V3.05H16.76V1.53Z" fill="white"/>
<path id="Vector_18" d="M15.24 22.86H9.14V24.38H15.24V22.86Z" fill="white"/>
<path id="Vector_19" d="M15.24 3.05H13.72V4.57H15.24V3.05Z" fill="white"/>
<path id="Vector_20" d="M13.72 4.57H12.19V6.1H13.72V4.57Z" fill="white"/>
<path id="Vector_21" d="M12.19 13.72H10.67V18.29H12.19V13.72Z" fill="white"/>
<path id="Vector_22" d="M12.19 3.05H10.67V4.57H12.19V3.05Z" fill="white"/>
<path id="Vector_23" d="M10.67 18.29H9.14V19.81H10.67V18.29Z" fill="white"/>
<path id="Vector_24" d="M9.14 13.72H10.67V10.67H7.62V12.19H9.14V13.72Z" fill="white"/>
<path id="Vector_25" d="M9.14 24.38H7.62V25.91H9.14V24.38Z" fill="white"/>
<path id="Vector_26" d="M9.14 19.81H7.62V21.34H9.14V19.81Z" fill="white"/>
<path id="Vector_27" d="M9.14 13.72H7.62V15.24H9.14V13.72Z" fill="white"/>
<path id="Vector_28" d="M4.57 7.62V9.15H10.67V6.1H9.14V7.62H4.57Z" fill="white"/>
<path id="Vector_29" d="M7.62 15.24H6.1V19.81H7.62V15.24Z" fill="white"/>
<path id="Vector_30" d="M7.62 12.19H6.1V13.72H7.62V12.19Z" fill="white"/>
<path id="Vector_31" d="M9.14 4.57H4.57V6.1H9.14V4.57Z" fill="white"/>
<path id="Vector_32" d="M7.62 25.91H1.53V27.43H7.62V25.91Z" fill="white"/>
<path id="Vector_33" d="M6.1 13.72H4.57V15.24H6.1V13.72Z" fill="white"/>
<path id="Vector_34" d="M10.67 1.53H3.05V3.05H10.67V1.53Z" fill="white"/>
<path id="Vector_35" d="M4.57 15.24H3.05V18.29H4.57V15.24Z" fill="white"/>
<path id="Vector_36" d="M4.57 9.15H3.05V10.67H4.57V9.15Z" fill="white"/>
<path id="Vector_37" d="M4.57 6.1H3.05V7.62H4.57V6.1Z" fill="white"/>
<path id="Vector_38" d="M3.05 18.29H1.53V19.81H3.05V18.29Z" fill="white"/>
<path id="Vector_39" d="M3.05 10.67H1.53V12.19H3.05V10.67Z" fill="white"/>
<path id="Vector_40" d="M3.05 7.62H1.53V9.15H3.05V7.62Z" fill="white"/>
<path id="Vector_41" d="M3.05 3.05H1.53V4.57H3.05V3.05Z" fill="white"/>
<path id="Vector_42" d="M1.53 27.43H0V28.96H1.53V27.43Z" fill="white"/>
<path id="Vector_43" d="M1.53 12.19H0V18.29H1.53V12.19Z" fill="white"/>
<path id="Vector_44" d="M1.53 4.57H0V7.62H1.53V4.57Z" fill="white"/>
</g>
</svg>
