<svg preserveAspectRatio="none" width="100%" height="100%" overflow="visible" style="display: block;" viewBox="0 0 28.95 30.48" fill="none" xmlns="http://www.w3.org/2000/svg">
<g id="Group">
<path id="Vector" d="M28.95 6.1H27.43V19.81H28.95V6.1Z" fill="white"/>
<path id="Vector_2" d="M27.43 19.81H25.91V21.33H27.43V19.81Z" fill="white"/>
<path id="Vector_3" d="M27.43 4.57H25.91V6.1H27.43V4.57Z" fill="white"/>
<path id="Vector_4" d="M25.91 21.33H24.38V22.86H25.91V21.33Z" fill="white"/>
<path id="Vector_5" d="M25.91 3.05H24.38V4.57H25.91V3.05Z" fill="white"/>
<path id="Vector_6" d="M24.38 22.86H22.86V28.95H24.38V22.86Z" fill="white"/>
<path id="Vector_7" d="M22.86 12.19H19.81V13.71H18.29V16.76H19.81V18.29H22.86V16.76H24.38V13.71H22.86V12.19Z" fill="white"/>
<path id="Vector_8" d="M24.38 1.52H21.33V3.05H24.38V1.52Z" fill="white"/>
<path id="Vector_9" d="M22.86 28.95H18.29V30.48H22.86V28.95Z" fill="white"/>
<path id="Vector_10" d="M18.29 24.38H16.76V28.95H18.29V24.38Z" fill="white"/>
<path id="Vector_11" d="M16.76 28.95H12.19V30.48H16.76V28.95Z" fill="white"/>
<path id="Vector_12" d="M16.76 19.81H12.19V21.33H16.76V19.81Z" fill="white"/>
<path id="Vector_13" d="M12.19 24.38H10.67V28.95H12.19V24.38Z" fill="white"/>
<path id="Vector_14" d="M21.33 0H7.62V1.52H21.33V0Z" fill="white"/>
<path id="Vector_15" d="M10.67 28.95H6.1V30.48H10.67V28.95Z" fill="white"/>
<path id="Vector_16" d="M9.14 12.19H6.1V13.71H4.57V16.76H6.1V18.29H9.14V16.76H10.67V13.71H9.14V12.19Z" fill="white"/>
<path id="Vector_17" d="M7.62 1.52H4.57V3.05H7.62V1.52Z" fill="white"/>
<path id="Vector_18" d="M6.1 22.86H4.57V28.95H6.1V22.86Z" fill="white"/>
<path id="Vector_19" d="M4.57 21.33H3.05V22.86H4.57V21.33Z" fill="white"/>
<path id="Vector_20" d="M4.57 3.05H3.05V4.57H4.57V3.05Z" fill="white"/>
<path id="Vector_21" d="M3.05 19.81H1.53V21.33H3.05V19.81Z" fill="white"/>
<path id="Vector_22" d="M3.05 4.57H1.53V6.1H3.05V4.57Z" fill="white"/>
<path id="Vector_23" d="M1.53 6.1H0V19.81H1.53V6.1Z" fill="white"/>
</g>
</svg>
