<svg preserveAspectRatio="none" width="100%" height="100%" overflow="visible" style="display: block;" viewBox="0 0 24 24" fill="none" xmlns="http://www.w3.org/2000/svg">
<path d="M12 15.5C13.933 15.5 15.5 13.933 15.5 12C15.5 10.067 13.933 8.5 12 8.5C10.067 8.5 8.5 10.067 8.5 12C8.5 13.933 10.067 15.5 12 15.5Z" fill="white"/>
<path fill-rule="evenodd" clip-rule="evenodd" d="M10.5 2H13.5V4.06C14.23 4.19 14.93 4.44 15.57 4.78L17.04 3.31L19.19 5.46L17.72 6.93C18.06 7.57 18.31 8.27 18.44 9H20.5V12H20.5V15H18.44C18.31 15.73 18.06 16.43 17.72 17.07L19.19 18.54L17.04 20.69L15.57 19.22C14.93 19.56 14.23 19.81 13.5 19.94V22H10.5V19.94C9.77 19.81 9.07 19.56 8.43 19.22L6.96 20.69L4.81 18.54L6.28 17.07C5.94 16.43 5.69 15.73 5.56 15H3.5V12V9H5.56C5.69 8.27 5.94 7.57 6.28 6.93L4.81 5.46L6.96 3.31L8.43 4.78C9.07 4.44 9.77 4.19 10.5 4.06V2ZM12 17C14.7614 17 17 14.7614 17 12C17 9.23858 14.7614 7 12 7C9.23858 7 7 9.23858 7 12C7 14.7614 9.23858 17 12 17Z" fill="white"/>
</svg>
